<?xml version="1.0" standalone="no"?>
<!DOCTYPE svg PUBLIC "-//W3C//DTD SVG 20010904//EN" "http://www.w3.org/TR/2001/REC-SVG-20010904/DTD/svg10.dtd">
<svg xmlns="http://www.w3.org/2000/svg" version="1.0" width="755" height="479" viewBox="0 0 755.000000 479.000000" preserveAspectRatio="xMidYMid meet">
<metadata>
Created by potrace 1.16, written by Peter Selinger 2001-2019
</metadata>
<g transform="translate(0.000000,479.000000) scale(0.100000,-0.100000)" fill="#000000" stroke="none">
<path d="M3257 4420 c-26 -5 -75 -24 -110 -44 -81 -45 -269 -188 -380 -290 -74 -67 -87 -83 -87 -110 0 -17 6 -41 14 -52 19 -27 223 -170 272 -190 52 -22 134 -14 244 21 47 15 144 47 215 70 72 23 191 62 265 85 176 55 220 74 305 126 84 53 237 132 318 164 70 27 67 33 -43 78 -172 70 -398 123 -605 142 -126 11 -338 11 -408 0z"/>
<path d="M2787 4354 c-352 -78 -790 -299 -1016 -512 -77 -73 -86 -105 -42 -144 57 -51 79 -45 389 113 369 188 372 190 471 281 47 43 141 122 208 174 68 53 125 100 129 105 8 13 -18 10 -139 -17z"/>
<path d="M4415 4107 c-99 -36 -225 -104 -268 -145 -38 -36 -52 -92 -37 -151 6 -25 42 -98 79 -161 37 -63 112 -194 166 -290 105 -189 132 -225 182 -246 54 -23 90 -16 222 40 69 29 149 61 177 70 96 31 253 56 355 56 98 0 101 1 130 29 47 47 41 83 -31 177 -170 227 -486 492 -719 606 -110 54 -144 56 -256 15z m328 -246 c91 -44 233 -176 276 -256 25 -47 26 -57 6 -94 -16 -31 -36 -41 -143 -70 -41 -11 -82 -23 -93 -26 -14 -5 -33 13 -87 87 -106 143 -232 324 -232 333 0 7 63 35 105 46 47 13 118 4 168 -20z"/>
<path d="M2464 3830 c-32 -7 -254 -116 -472 -233 -149 -79 -189 -116 -223 -206 -48 -129 -319 -1169 -319 -1226 0 -57 31 -120 69 -139 74 -39 346 -80 608 -92 l153 -7 62 31 c110 55 195 150 264 296 30 62 41 109 70 278 38 222 95 533 120 643 22 102 29 252 15 326 -25 125 -75 194 -206 284 -59 41 -99 54 -141 45z m-116 -525 c48 -40 66 -116 59 -249 -16 -284 -121 -545 -255 -634 l-55 -37 -113 0 c-62 0 -115 3 -118 6 -12 11 172 860 190 878 2 2 38 16 81 32 102 37 171 38 211 4z"/>
<path d="M3660 3745 c-58 -19 -135 -44 -173 -57 l-68 -22 6 -130 c7 -160 12 -196 28 -196 7 1 80 29 162 64 83 35 151 60 153 56 2 -4 -22 -67 -53 -139 l-56 -131 21 -118 c11 -66 20 -122 20 -126 0 -13 23 -4 78 31 31 20 77 42 101 50 38 11 48 11 67 -2 13 -8 26 -30 29 -49 21 -111 -175 -261 -356 -273 l-78 -6 -10 -46 c-39 -183 -71 -375 -64 -381 12 -12 95 6 145 31 70 35 163 104 345 257 248 207 296 265 337 401 25 85 21 155 -13 226 -51 109 -138 165 -255 165 -25 0 -46 2 -46 4 0 2 18 55 40 117 36 100 39 116 29 142 -18 44 -86 125 -122 148 -51 30 -141 25 -267 -16z"/>
<path d="M1519 3597 c-50 -33 -191 -198 -268 -312 -106 -157 -167 -264 -247 -429 -156 -324 -183 -503 -89 -592 18 -17 80 -55 137 -84 130 -65 174 -69 225 -18 31 31 37 52 112 348 88 346 161 610 221 797 54 166 51 253 -11 297 -31 21 -40 20 -80 -7z m-133 -432 c20 -82 -121 -502 -198 -590 -67 -75 -111 -57 -110 45 2 121 133 429 222 521 52 55 77 61 86 24z"/>
<path d="M3210 3596 c-138 -49 -181 -90 -214 -207 -52 -183 -226 -1141 -229 -1264 -2 -73 17 -108 67 -125 30 -10 49 -7 128 14 51 13 145 44 208 69 l115 44 6 174 c4 96 10 432 14 747 8 655 19 589 -95 548z"/>
<path d="M6675 3435 c-165 -18 -461 -62 -510 -76 -91 -26 -167 -87 -269 -217 -27 -34 -54 -62 -60 -62 -6 0 -35 9 -65 20 -93 36 -321 74 -321 54 0 -5 64 -46 141 -92 77 -46 143 -90 146 -98 3 -9 -8 -32 -24 -52 -27 -34 -41 -40 -149 -69 -281 -77 -409 -169 -879 -634 -260 -256 -369 -359 -435 -408 -19 -14 -69 -53 -110 -87 -171 -140 -413 -278 -629 -358 -303 -113 -578 -156 -1001 -156 -581 0 -1086 85 -1424 238 -204 92 -353 191 -495 329 l-96 92 27 27 27 27 53 -48 c123 -111 201 -144 250 -106 35 28 148 178 160 214 14 38 -5 81 -46 105 -17 11 -72 44 -123 76 -51 31 -99 56 -107 56 -30 0 -270 -173 -359 -258 -40 -38 -47 -50 -42 -71 10 -40 46 -88 135 -180 l81 -84 -23 -25 c-13 -14 -43 -46 -67 -71 -65 -68 -171 -197 -223 -271 -59 -85 -96 -158 -109 -219 -20 -94 23 -326 67 -358 26 -19 64 -16 107 7 l38 20 32 -24 c85 -63 148 -72 210 -30 l39 26 48 -21 c27 -12 69 -21 94 -21 38 0 52 6 84 35 l39 34 60 -11 c117 -22 160 25 170 183 l6 89 84 83 c46 45 90 83 97 85 14 3 170 -77 234 -120 166 -113 268 -136 947 -208 342 -36 544 -50 922 -64 205 -8 377 -17 382 -20 5 -3 11 -16 15 -28 12 -48 104 -206 159 -275 102 -126 282 -263 345 -263 26 0 47 21 73 72 19 38 21 39 42 24 113 -80 192 -111 221 -86 8 6 22 36 31 66 l15 54 52 -21 c64 -25 95 -22 122 14 31 42 30 176 -3 271 -26 77 -24 89 37 172 29 40 35 43 104 54 141 23 334 68 448 105 167 54 272 110 348 186 77 77 89 97 105 194 l13 75 24 -17 c49 -33 50 -40 14 -251 -22 -129 -24 -162 -15 -193 20 -68 74 -115 226 -200 33 -18 83 -45 110 -61 64 -35 77 -35 110 4 l26 31 85 -42 c95 -48 118 -48 140 5 8 19 19 34 24 34 5 0 39 -16 76 -35 98 -52 114 -47 129 47 3 21 9 38 12 38 3 0 30 -7 59 -17 49 -15 54 -15 78 1 23 14 26 24 26 70 0 30 -10 85 -22 122 -21 64 -23 88 -24 319 0 224 -2 259 -22 333 -68 258 -218 425 -427 478 -14 3 -25 10 -25 14 0 5 26 29 58 53 64 49 144 87 239 111 34 9 110 35 169 58 90 35 116 50 169 100 42 39 70 75 85 110 12 29 39 69 59 88 23 22 46 57 59 93 28 74 54 270 56 417 2 212 -29 240 -394 358 -153 50 -192 54 -345 37z m271 -145 c128 -41 278 -99 303 -118 45 -33 53 -58 47 -162 -4 -85 -35 -288 -52 -347 -3 -13 -10 -23 -15 -23 -4 0 -43 19 -86 41 -74 39 -81 41 -143 36 -71 -6 -272 -69 -385 -121 -68 -32 -185 -118 -185 -136 0 -5 25 0 56 10 31 11 89 26 129 35 41 8 109 26 152 39 213 67 277 73 341 33 23 -15 42 -30 42 -33 0 -2 -9 -22 -19 -43 -41 -80 -124 -129 -341 -200 -69 -23 -138 -46 -154 -51 -44 -14 -179 -94 -167 -98 11 -4 -66 -69 -106 -90 -12 -7 -57 -23 -100 -37 -43 -14 -136 -56 -208 -95 -71 -38 -201 -106 -287 -152 -87 -45 -156 -83 -155 -84 9 -9 246 70 401 135 115 48 146 52 90 13 -465 -332 -600 -405 -818 -436 -35 -5 -38 -4 -33 17 46 198 51 329 16 442 -31 101 -62 158 -111 200 -56 48 -168 101 -242 114 -33 6 -62 14 -65 17 -15 16 326 313 461 401 75 49 242 127 260 121 12 -4 -34 -62 -120 -153 -36 -38 -82 -88 -101 -109 l-36 -39 40 23 c83 49 213 147 303 228 79 72 204 219 405 477 59 74 107 92 362 130 177 27 356 44 411 39 29 -3 78 -14 110 -24z m-1950 -1270 c119 -61 173 -169 174 -350 0 -183 -97 -434 -283 -725 -38 -60 -86 -136 -106 -167 l-36 -58 -75 0 c-83 0 -166 -16 -280 -51 l-75 -24 150 -6 c181 -7 229 -19 254 -60 20 -32 57 -187 47 -196 -11 -11 -58 20 -122 80 l-62 57 -4 -104 c-2 -58 -7 -108 -10 -112 -12 -11 -131 82 -173 135 -21 28 -42 47 -45 43 -4 -4 -12 -27 -19 -52 -7 -25 -22 -66 -33 -92 l-20 -47 -65 51 c-118 93 -242 259 -277 372 -16 51 -16 56 2 108 10 30 47 103 82 163 95 165 162 260 382 543 22 29 39 54 37 57 -3 2 -61 -49 -129 -113 -68 -64 -121 -108 -118 -97 24 77 113 304 126 319 10 10 40 37 67 58 28 22 110 97 184 167 73 69 138 130 145 134 6 4 57 6 112 5 93 -3 108 -6 170 -38z m1528 -152 c83 -24 135 -58 202 -131 63 -69 100 -145 126 -260 17 -76 20 -119 17 -252 -4 -263 -3 -295 20 -354 11 -30 18 -57 16 -59 -10 -10 -57 19 -107 65 l-51 48 6 -97 c4 -54 3 -98 -1 -98 -18 0 -104 62 -153 109 -29 28 -54 51 -56 51 -2 0 -3 -38 -3 -85 0 -47 -2 -85 -5 -85 -32 0 -146 88 -185 142 -15 21 -30 34 -34 31 -3 -3 -6 -34 -6 -67 0 -82 -8 -93 -51 -71 -65 34 -176 115 -189 140 -11 21 -10 44 10 160 29 174 25 251 -17 303 -40 50 -103 83 -193 103 l-75 16 120 79 c66 43 175 122 243 174 216 168 221 171 261 164 20 -3 67 -14 105 -26z m-5828 -351 c157 -112 367 -219 513 -262 22 -7 19 -12 -59 -90 l-82 -83 -57 26 c-103 48 -315 39 -506 -20 l-40 -13 45 -2 c253 -13 420 -42 463 -81 13 -12 17 -31 17 -92 0 -42 -5 -81 -11 -87 -17 -17 -59 13 -98 68 -18 27 -37 49 -42 49 -7 0 -29 -62 -29 -83 0 -19 -43 -107 -52 -107 -26 0 -93 68 -114 117 -13 29 -26 53 -29 53 -3 0 -19 -28 -35 -62 -17 -35 -40 -74 -50 -88 -18 -24 -21 -24 -47 -10 -37 21 -69 70 -77 119 -3 23 -11 41 -16 41 -6 0 -33 -24 -61 -53 -57 -60 -64 -57 -75 31 -14 112 14 192 115 327 58 77 281 325 291 324 3 0 19 -10 36 -22z m3414 0 c0 -19 -137 -335 -211 -485 l-94 -192 -165 6 c-210 7 -743 40 -965 59 -362 32 -857 101 -910 127 -60 30 -195 114 -195 121 0 4 4 6 9 3 11 -7 342 -52 491 -66 185 -18 618 -24 774 -11 462 39 866 178 1201 412 34 24 65 36 65 26z"/>
<path d="M6535 3141 c-95 -46 -100 -52 -82 -87 30 -59 104 -130 148 -143 52 -16 125 -7 170 21 l34 21 -49 13 c-27 7 -53 19 -57 26 -33 52 34 69 110 28 30 -16 36 -8 18 27 -36 67 -126 122 -202 123 -16 0 -57 -13 -90 -29z"/>
<path d="M5075 3119 c-131 -31 -269 -91 -446 -193 -63 -36 -139 -104 -150 -134 -15 -39 7 -61 128 -129 127 -71 227 -109 263 -100 14 3 65 38 114 77 100 80 255 185 331 222 28 14 87 37 132 52 46 15 85 32 88 36 10 16 -119 89 -245 139 -87 34 -158 44 -215 30z"/>
<path d="M4249 2611 c-24 -16 -82 -63 -127 -104 -46 -42 -111 -98 -144 -124 -148 -118 -179 -146 -198 -183 -26 -51 -25 -98 4 -223 13 -56 27 -122 31 -147 14 -89 59 -138 116 -126 64 12 278 185 510 410 212 206 249 249 249 289 0 18 -6 40 -12 49 -18 23 -180 125 -253 159 -77 37 -119 37 -176 0z"/>
<path d="M3400 2020 c-69 -32 -168 -73 -220 -91 -52 -17 -129 -44 -171 -60 -72 -28 -77 -32 -99 -78 -21 -46 -22 -58 -18 -212 6 -256 17 -264 260 -213 113 24 311 83 383 115 120 54 175 105 175 163 0 24 -56 281 -80 368 -12 43 -43 68 -80 67 -14 -1 -81 -27 -150 -59z"/>
<path d="M1147 1920 c-14 -11 -41 -43 -61 -72 -20 -29 -57 -82 -81 -117 -25 -36 -45 -72 -45 -81 0 -30 56 -70 166 -119 135 -59 408 -140 501 -148 66 -5 70 -4 90 21 22 27 83 262 83 316 0 77 -50 108 -215 134 -101 16 -161 31 -268 67 -75 25 -137 25 -170 -1z"/>
<path d="M2567 1794 c-3 -3 -130 -8 -283 -10 -302 -4 -314 -6 -336 -62 -17 -44 -58 -254 -58 -299 0 -61 29 -90 105 -105 37 -7 182 -12 382 -12 l322 -1 28 28 28 28 0 190 0 191 -33 29 c-28 25 -40 29 -90 29 -32 0 -61 -3 -65 -6z"/>
</g>
</svg>