<?xml version="1.0" standalone="no"?>
<!DOCTYPE svg PUBLIC "-//W3C//DTD SVG 20010904//EN"
 "http://www.w3.org/TR/2001/REC-SVG-20010904/DTD/svg10.dtd">
<svg version="1.0" xmlns="http://www.w3.org/2000/svg"
 width="270.000000pt" height="320.000000pt" viewBox="0 0 270.000000 320.000000"
 preserveAspectRatio="xMidYMid meet">

<g transform="translate(0.000000,320.000000) scale(0.100000,-0.100000)"
fill="#000000" stroke="none">
<path d="M1220 3075 c-134 -46 -465 -186 -593 -250 -198 -100 -376 -229 -420
-308 -43 -74 -52 -150 -52 -417 1 -275 13 -376 71 -620 112 -468 336 -840 684
-1138 82 -69 262 -180 359 -221 l103 -43 52 17 c177 58 420 225 591 407 171
181 282 355 403 628 81 184 159 521 177 765 3 44 8 109 10 145 7 90 -13 354
-31 420 -13 46 -27 66 -82 120 -129 127 -309 229 -677 386 -372 157 -428 168
-595 109z m303 -152 c49 -18 118 -47 154 -63 35 -17 67 -30 70 -30 11 0 246
-102 317 -137 114 -57 237 -138 304 -200 62 -58 62 -58 72 -133 23 -167 10
-503 -26 -705 -41 -225 -161 -565 -247 -702 -90 -142 -125 -192 -191 -270
-150 -179 -328 -322 -509 -409 -84 -40 -96 -39 -207 16 -241 118 -496 368
-658 642 -159 269 -249 559 -287 915 -26 239 -15 546 21 601 34 52 221 180
364 248 83 40 375 165 515 221 150 60 166 60 308 6z"/>
<path d="M1268 2855 c-127 -45 -333 -138 -350 -157 -28 -32 -21 -57 41 -153
98 -150 54 -135 415 -135 259 0 315 3 333 15 11 8 49 60 83 115 47 78 61 108
58 132 -3 34 -10 37 -243 138 -95 41 -189 70 -228 70 -23 -1 -72 -11 -109 -25z"/>
<path d="M680 2603 c-89 -50 -206 -132 -244 -172 -32 -33 -41 -51 -47 -93 -10
-71 -10 -374 0 -471 12 -117 19 -121 179 -125 161 -4 177 4 214 104 25 70 119
317 164 432 13 34 24 70 24 80 0 22 -133 241 -157 260 -26 19 -84 13 -133 -15z"/>
<path d="M1933 2608 c-11 -13 -32 -43 -47 -68 -15 -25 -43 -70 -62 -100 -38
-61 -43 -100 -18 -158 8 -20 36 -91 60 -157 104 -278 127 -330 156 -357 28
-27 31 -28 153 -28 122 0 125 1 155 28 30 27 30 28 42 189 16 222 2 408 -37
458 -30 40 -125 110 -233 171 -89 51 -137 57 -169 22z"/>
<path d="M1633 2325 c-10 -27 -59 -45 -120 -45 -88 0 -136 -36 -153 -115 -6
-29 -8 -30 -57 -27 l-52 3 -3 -38 -3 -38 -123 -3 -123 -3 3 -27 3 -27 95 -1
c157 0 152 1 146 -35 -3 -24 1 -37 19 -55 22 -22 33 -24 113 -24 80 0 91 2
110 23 13 14 22 36 22 55 l0 31 118 3 117 3 3 28 3 27 -120 0 -120 0 -3 38
c-3 35 -5 37 -38 38 -66 3 -70 4 -70 23 0 11 11 32 24 47 21 25 33 29 103 35
87 7 123 24 141 65 16 33 15 34 -8 34 -11 0 -23 -7 -27 -15z"/>
<path d="M1310 1854 c0 -13 28 -58 61 -97 8 -10 79 79 79 99 0 11 -18 14 -70
14 -57 0 -70 -3 -70 -16z"/>
<path d="M1022 1753 c2 -13 16 -20 43 -23 l40 -5 42 -130 c45 -136 48 -150 37
-203 -5 -24 -2 -38 11 -52 17 -19 32 -20 200 -20 145 0 185 3 194 14 21 25 -8
31 -184 34 -93 2 -174 7 -179 12 -17 17 33 28 184 39 135 11 157 15 173 33 9
11 17 26 17 33 0 7 11 47 25 88 13 42 22 83 19 92 -5 13 -39 15 -240 15 l-235
0 -19 45 -19 45 -56 0 c-48 0 -56 -3 -53 -17z m553 -189 c-13 -42 -27 -80 -32
-84 -13 -11 -294 -33 -302 -24 -9 10 -38 103 -47 152 l-6 32 205 0 205 0 -23
-76z"/>
<path d="M449 1639 c-24 -24 -21 -52 18 -189 57 -200 150 -408 250 -558 101
-152 127 -150 220 18 77 139 78 148 5 300 -54 115 -155 339 -171 382 -20 53
-63 68 -188 68 -101 0 -115 -2 -134 -21z"/>
<path d="M2034 1646 c-32 -14 -40 -27 -116 -201 -22 -49 -51 -115 -65 -145
-87 -190 -95 -213 -91 -259 3 -33 21 -74 63 -143 31 -54 63 -103 71 -109 8 -6
26 -8 44 -4 24 5 42 24 87 93 119 180 206 375 264 585 50 186 44 197 -121 197
-65 -1 -117 -6 -136 -14z"/>
<path d="M1219 1279 c-17 -33 3 -69 39 -69 33 0 52 16 52 45 0 29 -19 45 -52
45 -18 0 -31 -7 -39 -21z"/>
<path d="M1482 1288 c-20 -20 -14 -56 13 -74 23 -15 27 -15 50 0 44 29 28 86
-25 86 -14 0 -31 -5 -38 -12z"/>
<path d="M1104 1000 c-26 -10 -42 -32 -127 -181 -69 -121 -75 -139 -54 -177
19 -34 151 -147 242 -207 182 -120 208 -123 349 -45 96 53 262 181 304 235 29
36 28 82 -3 127 -14 20 -25 39 -25 42 0 12 -95 164 -118 189 l-26 27 -260 -1
c-144 0 -271 -4 -282 -9z"/>
</g>
</svg>
